<?xml version="1.0" encoding="iso-8859-1"?>
<!-- Generator: Adobe Illustrator 18.0.0, SVG Export Plug-In . SVG Version: 6.00 Build 0)  -->
<!DOCTYPE svg PUBLIC "-//W3C//DTD SVG 1.1//EN" "http://www.w3.org/Graphics/SVG/1.1/DTD/svg11.dtd">
<svg version="1.1" xmlns="http://www.w3.org/2000/svg" xmlns:xlink="http://www.w3.org/1999/xlink" x="0px" y="0px" width="2800px"
	 height="2800px" viewBox="0 0 2800 2800" enable-background="new 0 0 2800 2800" xml:space="preserve">
<g id="BACKGROUND">
	<g>
		<linearGradient id="SVGID_1_" gradientUnits="userSpaceOnUse" x1="-3.142759e-08" y1="3.142668e-08" x2="2800" y2="2800">
			<stop  offset="0" style="stop-color:#A6228E"/>
			<stop  offset="0.2589" style="stop-color:#7B1979"/>
			<stop  offset="1" style="stop-color:#03003E"/>
		</linearGradient>
		<rect fill="url(#SVGID_1_)" width="2800" height="2800"/>
	</g>
	<g>
		<linearGradient id="SVGID_2_" gradientUnits="userSpaceOnUse" x1="661.0734" y1="661.0734" x2="2138.9265" y2="2138.9265">
			<stop  offset="0" style="stop-color:#FFFF69"/>
			<stop  offset="1" style="stop-color:#FF59A6"/>
		</linearGradient>
		<circle opacity="0.4" fill="url(#SVGID_2_)" cx="1400" cy="1400" r="1045"/>
		<linearGradient id="SVGID_3_" gradientUnits="userSpaceOnUse" x1="629.996" y1="391.7557" x2="2170.0042" y2="1931.7639">
			<stop  offset="0" style="stop-color:#FFFF69"/>
			<stop  offset="1" style="stop-color:#FF59A6"/>
		</linearGradient>
		<polygon opacity="0.4" fill="url(#SVGID_3_)" points="1400,2701.8 2527.4,749.1 272.6,749.1 		"/>
	</g>
</g>
<g id="OBJECTS">
	<g>
		<g>
			<linearGradient id="SVGID_4_" gradientUnits="userSpaceOnUse" x1="935.577" y1="1843.645" x2="2345.9661" y2="3254.0339">
				<stop  offset="0" style="stop-color:#00B9F2"/>
				<stop  offset="1" style="stop-color:#00346C"/>
			</linearGradient>
			<path fill="url(#SVGID_4_)" d="M2669,2102.8l-542.8-265.9l-438.2-2.8l-438.2,2.8l-542.8,265.9c-106,51.9-183.6,148.1-212,262.7
				L387.2,2800h152.5l909.9,0h0h238.4h238.4h0l873.7,0v-594.4C2764.4,2163,2720,2127.8,2669,2102.8z"/>
		</g>
		<linearGradient id="SVGID_5_" gradientUnits="userSpaceOnUse" x1="1687.9424" y1="2429.0874" x2="1687.9424" y2="1707.7688">
			<stop  offset="0" style="stop-color:#00346C"/>
			<stop  offset="1" style="stop-color:#00B9F2"/>
		</linearGradient>
		<polygon fill="url(#SVGID_5_)" points="2217.5,1977.1 2115.8,1763 2016.8,1707.8 1359.1,1707.8 1260,1763 1158.4,1977.1 
			1229.8,2429.1 1687.9,2188.3 2146.1,2429.1 		"/>
		<linearGradient id="SVGID_6_" gradientUnits="userSpaceOnUse" x1="852.6018" y1="669.0099" x2="2176.4524" y2="1992.8606">
			<stop  offset="0" style="stop-color:#FFDFB4"/>
			<stop  offset="0.2129" style="stop-color:#FEDAB0"/>
			<stop  offset="0.4519" style="stop-color:#FDCDA5"/>
			<stop  offset="0.7034" style="stop-color:#FAB693"/>
			<stop  offset="0.9622" style="stop-color:#F79779"/>
			<stop  offset="1" style="stop-color:#F69275"/>
		</linearGradient>
		<path fill="url(#SVGID_6_)" d="M808.1,1381.5l54.2,21.5l-13.8,53.6c-1.6,6.2-1.2,12.8,1.2,18.8l7.3,18.5c2.4,6.1,7,11.1,12.9,14.1
			l22.8,11.2l-19.1,23.7c-6.9,8.5-8.5,20.1-4.3,30.2l1.5,3.5c2.6,6.3,7.2,11.5,13.1,14.8l8.9,5l-27.5,173.7
			c-3.9,24.9,0.4,50.4,12.3,72.5l0,0c17.9,33.4,51.2,55.9,88.9,60h0c48.7,5.4,98-1.4,143.5-19.6l211-84.4l-20.5,189.2l387.7,493.5
			l389.9-521.2l-126.2-472.7V612.4l-888.9-153.6L922.3,723.3l-64.5,260.9c-4.3,17.4-2.1,35.7,6.1,51.7l13.4,26c9,17.5,9,38.2,0,55.7
			l-97.3,189.3c-6.5,12.7-7.7,27.5-3.4,41C781.6,1363.3,793.1,1375.6,808.1,1381.5z"/>
		<linearGradient id="SVGID_7_" gradientUnits="userSpaceOnUse" x1="806.5787" y1="525.061" x2="1860.3141" y2="1578.7965">
			<stop  offset="0" style="stop-color:#2D404E"/>
			<stop  offset="1" style="stop-color:#100C1A"/>
		</linearGradient>
		<path fill="url(#SVGID_7_)" d="M1415.4,205.5c-514.2,0-593.6,355.7-493.1,517.9c0,0,240.1-134.6,316.3-94.1
			c76.2,40.5,16.2,217.3-26,280.6c0,0,154.1,51.9,154.1,228.7c0,176.8-123.3,267.6-188.2,313c-64.9,45.4-130.7,48.9-130.7,48.9
			s-31.1-60.9-85.2-74.4c-44-11-100.4-23.2-100.4-23.2l-13.8,53.6c-0.1,0.3-0.1,0.6-0.2,1c120.1,21.4,134.5,61.2,138,76.9
			c6.5,28.8-34.7,63.3-93,82.2c-1.4,0.4-2.7,0.9-4.1,1.3l-24.1,152.2c-3.9,24.9,0.4,50.4,12.3,72.5v0c17.9,33.4,51.2,55.9,88.9,60h0
			c48.7,5.4,98-1.4,143.5-19.6l211-84.4l184.4-73.8c34-13.6,56.2-46.5,56.2-83.1v0c0-31.8-7.7-63.1-22.3-91.3
			c-35.1-67.6-99.3-207.8-99.3-329.2c0-167.1,167.1-254.7,313-159c101.9,66.8,89.2,179.4,72.2,241.3c-7.9,28.8,0.3,59.6,21.5,80.5
			l105.1,103.2c0,0,203.3-384.1,203.3-624.2S1929.6,205.5,1415.4,205.5z"/>
		<linearGradient id="SVGID_8_" gradientUnits="userSpaceOnUse" x1="2057.1099" y1="1190.0295" x2="1099.3601" y2="232.2797">
			<stop  offset="0" style="stop-color:#2D404E"/>
			<stop  offset="1" style="stop-color:#100C1A"/>
		</linearGradient>
		<path fill="url(#SVGID_8_)" d="M2155,863.3c0-240.1-225.4-657.8-739.6-657.8S821.8,561.1,922.3,723.3c0,0,99.8-56,191.1-84.9
			c96.5-32,144-179.7,424.6-179.7c227.6,0,630.4,191.3,557.7,692.6C2129.1,1053,2155,948.9,2155,863.3z"/>
		<polygon opacity="0.3" points="1320.8,1798.7 1316.1,1979.1 1736.6,2416.3 1687.9,2481.4 1300.2,1987.8 		"/>
		<g>
			<g>
				<linearGradient id="SVGID_9_" gradientUnits="userSpaceOnUse" x1="1334.9623" y1="901.9116" x2="1741.3033" y2="1308.2527">
					<stop  offset="0" style="stop-color:#FFDFB4"/>
					<stop  offset="0.2129" style="stop-color:#FEDAB0"/>
					<stop  offset="0.4519" style="stop-color:#FDCDA5"/>
					<stop  offset="0.7034" style="stop-color:#FAB693"/>
					<stop  offset="0.9622" style="stop-color:#F79779"/>
					<stop  offset="1" style="stop-color:#F69275"/>
				</linearGradient>
				<path fill="url(#SVGID_9_)" d="M1646.4,1050c-13.9-0.7-30.4,5.2-53,45.4c-22.6,40.2-13.2,72.8,1.6,93.2
					c14.8,20.4-1.4,28.6-29.3,54.3c-27.8,25.7-22.6,38.9-15.9,52.5c6.7,13.5,40,18.3,63.7,16.7c23.8-1.6,48.4-27.3,48.4-27.3
					s-34.5,21.8-53.9,21.1c-19.4-0.7-42-5-47.8-12.6c-5.8-7.6-6.1-29.1,9.3-43.3c15.4-14.2,51-13.3,59.1-33.2
					c8.1-19.9-33.3-42.2-24.9-55c8.4-12.8,58.5,7.8,58.5,52.2c0,44.4-43.1,43.8-43.1,43.8c45.9,2.3,56.1-31.6,53.8-72.4
					c-2.3-40.8-46.4-43.5-52.7-50.9c-6.4-7.3,9.9-70.8,25.5-70.8c20.6,0,69,45,84.2,91.1s-20,92.1-20,92.1s31.3-33.7,31.3-75.6
					C1741.1,1105.3,1660.3,1050.7,1646.4,1050z"/>
				<linearGradient id="SVGID_10_" gradientUnits="userSpaceOnUse" x1="1271.1809" y1="965.6931" x2="1677.5219" y2="1372.0341">
					<stop  offset="0" style="stop-color:#FFDFB4"/>
					<stop  offset="0.2129" style="stop-color:#FEDAB0"/>
					<stop  offset="0.4519" style="stop-color:#FDCDA5"/>
					<stop  offset="0.7034" style="stop-color:#FAB693"/>
					<stop  offset="0.9622" style="stop-color:#F79779"/>
					<stop  offset="1" style="stop-color:#F69275"/>
				</linearGradient>
				<path fill="url(#SVGID_10_)" d="M1600.4,1396.2c-42.3,0-63.7-46.3-63.7-46.3s11.6,59.1,66.1,59.1c54.5,0,127.6-122,127.6-122
					S1642.7,1396.2,1600.4,1396.2z"/>
				<linearGradient id="SVGID_11_" gradientUnits="userSpaceOnUse" x1="1398.0409" y1="838.8331" x2="1804.3818" y2="1245.1741">
					<stop  offset="0" style="stop-color:#FFDFB4"/>
					<stop  offset="0.2129" style="stop-color:#FEDAB0"/>
					<stop  offset="0.4519" style="stop-color:#FDCDA5"/>
					<stop  offset="0.7034" style="stop-color:#FAB693"/>
					<stop  offset="0.9622" style="stop-color:#F79779"/>
					<stop  offset="1" style="stop-color:#F69275"/>
				</linearGradient>
				<path fill="url(#SVGID_11_)" d="M1765.8,1202.6c-0.4,2.2-0.9,4.4-1.4,6.6C1765,1207.1,1765.4,1204.9,1765.8,1202.6z"/>
				<linearGradient id="SVGID_12_" gradientUnits="userSpaceOnUse" x1="1405.5844" y1="831.2897" x2="1811.9253" y2="1237.6306">
					<stop  offset="0" style="stop-color:#FFDFB4"/>
					<stop  offset="0.2129" style="stop-color:#FEDAB0"/>
					<stop  offset="0.4519" style="stop-color:#FDCDA5"/>
					<stop  offset="0.7034" style="stop-color:#FAB693"/>
					<stop  offset="0.9622" style="stop-color:#F79779"/>
					<stop  offset="1" style="stop-color:#F69275"/>
				</linearGradient>
				<path fill="url(#SVGID_12_)" d="M1646.8,1013.6c-66.8-5.8-102.4,52.2-102.4,52.2s42.6-46.7,104.1-39.9
					c79.5,8.9,128.2,111.8,117.3,176.6C1782.4,1113,1723.7,1020.4,1646.8,1013.6z"/>
			</g>
		</g>
	</g>
</g>
</svg>
